<?xml version="1.0" encoding="UTF-8" standalone="no"?>
<svg
   xmlns:dc="http://purl.org/dc/elements/1.1/"
   xmlns:cc="http://creativecommons.org/ns#"
   xmlns:rdf="http://www.w3.org/1999/02/22-rdf-syntax-ns#"
   xmlns:svg="http://www.w3.org/2000/svg"
   xmlns="http://www.w3.org/2000/svg"
   xmlns:sodipodi="http://sodipodi.sourceforge.net/DTD/sodipodi-0.dtd"
   xmlns:inkscape="http://www.inkscape.org/namespaces/inkscape"
   width="48.742001mm"
   height="43.391998mm"
   viewBox="0 0 48.742004 43.391998"
   version="1.1"
   id="svg1309"
   inkscape:version="1.0.1 (3bc2e813f5, 2020-09-07, custom)"
   sodipodi:docname="drawing.svg"
   inkscape:export-filename="/home/maryeol/Documents/bootstrap/selenagomez/img/icon.png"
   inkscape:export-xdpi="100"
   inkscape:export-ydpi="100">
  <defs
     id="defs1303" />
  <sodipodi:namedview
     id="base"
     pagecolor="#606060"
     bordercolor="#000000"
     borderopacity="1"
     inkscape:pageopacity="1"
     inkscape:pageshadow="2"
     inkscape:zoom="3.5182605"
     inkscape:cx="92.110867"
     inkscape:cy="98.079181"
     inkscape:document-units="mm"
     inkscape:current-layer="layer1"
     inkscape:document-rotation="0"
     showgrid="false"
     units="mm"
     inkscape:window-width="1920"
     inkscape:window-height="1006"
     inkscape:window-x="0"
     inkscape:window-y="0"
     inkscape:window-maximized="1"
     showborder="true"
     inkscape:pagecheckerboard="false"
     inkscape:showpageshadow="false" />
  <metadata
     id="metadata1306">
    <rdf:RDF>
      <cc:Work
         rdf:about="">
        <dc:format>image/svg+xml</dc:format>
        <dc:type
           rdf:resource="http://purl.org/dc/dcmitype/StillImage" />
        <dc:title />
      </cc:Work>
    </rdf:RDF>
  </metadata>
  <g
     inkscape:label="Layer 1"
     inkscape:groupmode="layer"
     id="layer1">
    <rect
       style="fill:#111111;fill-opacity:1;stroke-width:0.266235;stop-color:#000000"
       id="rect832"
       width="49.488861"
       height="43.391998"
       x="0.010309184"
       y="-0.029345144" />
    <path
       style="fill:#ffffff;stroke:none;stroke-width:0.264583"
       d="M 24.024973,-0.12757455 V 12.572425 h 0.264584 c 0,-3.5788596 1.113631,-9.4153826 -0.264584,-12.69999955 m -10.31875,2.91041595 3.96875,11.1125006 h 0.264583 C 17.148823,10.479041 15.645804,5.7043184 13.706223,2.7828414 m 20.902083,0 -3.96875,11.1125006 h 0.264583 C 31.730168,10.869223 35.251508,5.8463994 34.608306,2.7828414 M 6.0333056,9.6620086 c 0.999914,2.2434544 3.319066,4.8981514 5.2916674,6.3499994 L 6.0333056,9.6620086 m 36.2479174,0 -5.027084,6.3499994 c 1.501775,-1.21113 4.904846,-4.381976 5.027084,-6.3499994 m -41.80416744,7.9374994 5.02708404,3.175 -5.02708404,-3.175 m 42.59791744,3.175 4.762501,-2.645833 c -1.375569,-0.200686 -4.016905,1.504183 -4.762501,2.645833 M 0.21247256,35.062009 h 0.529166 v -3.96875 C 3.6416836,30.966788 6.8979376,28.888221 5.5016786,25.540977 c -0.561711,-1.346385 -3.41884,-3.037946 -4.86497304,-2.049595 -0.716545,0.489718 -0.424233,2.101718 -0.424233,2.839377 v 8.73125 m 6.61458304,0 h 0.529167 c 0,-0.850106 -0.429048,-3.466571 0.601848,-3.837252 0.9956,-0.357982 2.2140594,2.160587 2.7360564,2.7686 1.909683,2.223823 7.544779,5.256477 9.62668,1.597818 -4.891961,1.996282 -8.85579,-0.277812 -11.1125014,-5.027083 1.7110874,-0.717815 3.3000424,-1.89521 3.1423244,-3.96875 -0.145256,-1.909895 -2.9399444,-4.216162 -4.9102964,-3.278902 -0.934958,0.444712 -0.613278,2.181146 -0.613278,3.014319 v 8.73125 M 16.61664,23.327447 c -5.863617,1.760034 -4.354698,13.364395 2.116667,11.525541 6.202098,-1.76239 4.222247,-13.428107 -2.116667,-11.525541 m 6.879167,0.886645 1.322916,-0.264583 v 10.31875 l -1.5875,-0.529167 c 1.267169,1.910292 4.622535,1.098286 5.998368,-0.320939 2.224617,-2.295261 1.898121,-6.99188 -0.491066,-9.062985 -1.346994,-1.167659 -4.08305,-1.833774 -5.242718,-0.141076 m 18.520832,4.497917 -4.497916,0.264583 v 0.264583 c 1.034785,0 3.011223,-0.373856 3.809206,0.424127 2.625725,2.62599 -1.744663,5.592498 -4.338108,4.35954 -4.031457,-1.916642 -3.684059,-9.375775 1.058068,-10.224982 1.571361,-0.281411 2.492905,1.04865 3.704167,1.737149 -1.989667,-5.714974 -8.375915,-0.189178 -8.174302,3.96875 0.157956,3.258079 5.075767,8.252089 8.014758,4.437591 0.922338,-1.197504 0.424127,-3.792273 0.424127,-5.231341 M 31.962473,23.420342 v 11.377083 h 0.529166 V 23.420342 h -0.529166 m 16.933334,11.377083 v -0.529166 h -4.762501 v -5.027084 h 3.968751 v -0.529166 h -3.968751 v -4.7625 l 4.497918,-0.264584 c -0.614363,-0.257783 -1.180836,-0.261514 -1.852348,-0.264371 -4.198674,-0.01794 -3.174737,2.910469 -3.174737,6.349788 0,1.143 -0.470693,3.665008 0.271992,4.602956 0.767027,0.96864 3.88673,0.424127 5.019676,0.424127 M 0.74163856,30.564092 v -6.879167 c 5.75090504,0.122502 5.66044304,6.632311 0,6.879167 m 6.61458404,0 v -6.879167 c 5.9631534,0.127027 5.1716524,5.79755 0,6.879167 m 9.7895834,-6.790981 c 5.773024,-0.964089 6.900096,9.882373 1.058334,10.6621 -5.889202,0.786342 -6.474249,-9.757648 -1.058334,-10.6621 M 25.34789,34.532842 V 23.684925 c 6.498166,0.297656 6.448424,10.281444 0,10.847917 m 1.587499,3.704167 v 4.7625 h 0.529167 v -2.116667 h 0.264583 l 0.264583,2.38125 h 0.264584 v -5.027083 h -0.529167 v 2.38125 h -0.264583 v -2.38125 h -0.529167 m -6.614582,4.7625 h 0.264583 l 0.529167,-2.116667 v -0.264583 c -0.52377,-0.702469 -0.52377,-1.149615 0,-1.852083 -1.636739,-0.367507 -0.794412,3.241145 -0.79375,4.233333 m 4.7625,0.264583 c 2.170376,-1.272381 -0.913739,-2.968889 0.529165,-4.497916 -1.827714,-0.272521 -0.102923,3.410743 -0.529165,4.497916 m 4.762499,-4.7625 c -0.293688,0.550069 -1.216554,4.539457 0.219604,4.254236 1.404408,-0.279136 0.34581,-3.650721 -0.219604,-4.254236 m 2.116667,0 v 4.7625 c 0.607747,-1.318948 1.924314,-4.123796 0,-4.7625 m -16.139583,0.264584 0.264583,4.497916 h 0.529167 c 0.457094,-0.824177 0.91948,-1.862931 -0.264584,-2.116666 l 0.264584,1.5875 h -0.529167 l 0.529167,-3.704167 -0.79375,-0.264583 m 2.645833,0 v 4.497916 h 0.264584 l 0.264583,-4.497916 h -0.529167 m 3.704167,0 v 0.264583 l 0.79375,3.704167 h 0.264583 c -7.93e-4,-1.196711 -0.556445,-2.979473 0.529167,-3.704167 l -1.5875,-0.264583 m 10.318749,0 v 2.38125 h -0.264583 l 0.264583,-2.38125 m -2.38125,0.264583 v 3.704167 h -0.264583 c -0.358775,-1.214173 -0.472017,-2.625725 0.264583,-3.704167 z"
       id="path968"
       inkscape:export-filename="/home/maryeol/Documents/bootstrap/selenagomez/img/path968.png"
       inkscape:export-xdpi="100"
       inkscape:export-ydpi="100" />
  </g>
  <g
     inkscape:groupmode="layer"
     id="layer2"
     inkscape:label="Layer 2" />
</svg>
